<?xml version="1.0" encoding="UTF-8"?>
<svg width="18px" height="18px" viewBox="0 0 18 18" version="1.1" xmlns="http://www.w3.org/2000/svg" xmlns:xlink="http://www.w3.org/1999/xlink">
    <!-- Generator: sketchtool 51.3 (57544) - http://www.bohemiancoding.com/sketch -->
    <title>AA9586DE-04FB-42CF-B1E7-A3DF4C4ABC09</title>
    <desc>Created with sketchtool.</desc>
    <defs></defs>
    <g id="Page-1" stroke="none" stroke-width="1" fill="none" fill-rule="evenodd">
        <g id="Pojedinacna-vest" transform="translate(-254.000000, -2213.000000)" fill="#8AB957">
            <g id="Text-kometara-Copy-5" transform="translate(35.000000, 2111.000000)">
                <g id="Group-2-Copy" transform="translate(151.000000, 96.000000)">
                    <path d="M76.6418947,6 C71.8671579,6 68,10.0258744 68,15.0029602 C68,19.9682052 71.8671579,24 76.6418947,24 C81.3995789,24 85.28,19.9682052 85.28,15.0029602 C85.28,10.0258744 81.3995789,6 76.6418947,6 Z M76.8498421,19.1045702 C76.1715263,19.8192894 75.0744737,19.8192894 74.4018421,19.1045702 L71.9576316,16.5187325 C71.2887895,15.8020057 71.2887895,14.641591 71.9576316,13.9288795 C72.6302632,13.2121527 73.7273158,13.2121527 74.4018421,13.9288795 L75.6239474,15.2278213 L79.2826842,11.3370188 C79.9553158,10.6202921 81.0447895,10.6202921 81.7231053,11.3370188 C82.4108947,12.0557532 82.4108947,13.2121527 81.7231053,13.9288795 L76.8498421,19.1045702 Z" id="Fill-1000"></path>
                </g>
            </g>
        </g>
    </g>
</svg>