<?xml version="1.0" encoding="UTF-8"?>
<svg width="18px" height="18px" viewBox="0 0 18 18" version="1.1" xmlns="http://www.w3.org/2000/svg" xmlns:xlink="http://www.w3.org/1999/xlink">
    <!-- Generator: sketchtool 51.3 (57544) - http://www.bohemiancoding.com/sketch -->
    <title>1E1A20AC-B046-4456-AD17-990DC8670ED2</title>
    <desc>Created with sketchtool.</desc>
    <defs></defs>
    <g id="Page-1" stroke="none" stroke-width="1" fill="none" fill-rule="evenodd">
        <g id="Pojedinacna-vest" transform="translate(-56.000000, -2213.000000)" fill="#8AB957">
            <g id="Text-kometara-Copy-5" transform="translate(35.000000, 2111.000000)">
                <g id="Group-3-Copy" transform="translate(15.000000, 96.000000)">
                    <g id="Group" transform="translate(6.000000, 6.000000)">
                        <path d="M17.0324166,7.25709981 L11.4800062,7.25709981 C12.2412237,5.29171576 12.1419345,2.80880742 12.1419345,2.80880742 C11.9745056,1.52808584 11.6435414,0.778984545 11.1568294,0.335967648 C10.2515451,-0.501737031 9.77262052,0.491023562 9.77262052,0.491023562 C9.77262052,0.491023562 10.1113721,2.38794137 9.80766378,3.50555218 C9.5000618,4.62920413 7.33711372,7.91961145 7.33711372,7.91961145 C7.19694067,8.30624437 5.87308405,9.20033302 5.4,9.43191004 L5.4,15.4710358 C5.4,15.4710358 6.3578492,15.4468713 6.78615575,15.666366 C8.47407293,16.5201804 15.3912237,16.0932732 15.3912237,16.0932732 C15.8818294,16.0348755 16.2731459,15.5737352 16.2731459,14.9937858 C16.2731459,14.3755759 15.8428925,13.8862436 15.3094561,13.8862436 L15.8117429,13.8862436 C16.3549135,13.8862436 16.7754326,13.3908701 16.7754326,12.7787013 C16.7754326,12.1685462 16.3549135,11.6792139 15.8117429,11.6792139 L16.3237639,11.6792139 C16.8572002,11.6792139 17.2894005,11.1818268 17.2894005,10.5777128 C17.2894005,9.9615166 16.8572002,9.4721843 16.3237639,9.4721843 L17.0324166,9.4721843 C17.5677998,9.4721843 18,8.97681086 18,8.36665577 C18,7.75851439 17.5677998,7.25709981 17.0324166,7.25709981 Z" id="Fill-781"></path>
                        <path d="M2.57977737,14.5787529 C2.15607607,14.5787529 1.81377551,14.917552 1.81377551,15.3457275 C1.81377551,15.769746 2.15607607,16.108545 2.57977737,16.108545 C3.00347866,16.108545 3.34995362,15.769746 3.34995362,15.3457275 C3.34995362,14.917552 3.00347866,14.5787529 2.57977737,14.5787529 Z M0,9.13926097 C0,8.56558891 0.465445269,8.1 1.04359926,8.1 L3.45222635,8.1 C4.03038033,8.1 4.5,8.56558891 4.5,9.13926097 L4.5,16.0586605 C4.5,16.6385681 4.03038033,17.1 3.45222635,17.1 L1.04359926,17.1 C0.465445269,17.1 0,16.6385681 0,16.0586605 L0,9.13926097 Z" id="Fill-782"></path>
                    </g>
                </g>
            </g>
        </g>
    </g>
</svg>