<?xml version="1.0" encoding="UTF-8"?>
<svg width="20px" height="18px" viewBox="0 0 20 18" version="1.1" xmlns="http://www.w3.org/2000/svg" xmlns:xlink="http://www.w3.org/1999/xlink">
    <!-- Generator: sketchtool 51.3 (57544) - http://www.bohemiancoding.com/sketch -->
    <title>8D2404A6-2CC7-4659-86DD-8646EB56B808</title>
    <desc>Created with sketchtool.</desc>
    <defs></defs>
    <g id="Page-1" stroke="none" stroke-width="1" fill="none" fill-rule="evenodd">
        <g id="Pojedinacna-vest" transform="translate(-124.000000, -2213.000000)" fill="#8AB957">
            <g id="Text-kometara-Copy-5" transform="translate(35.000000, 2111.000000)">
                <g id="Group-4-Copy" transform="translate(83.000000, 96.000000)">
                    <g id="Group-Copy" transform="translate(16.000000, 15.000000) scale(1, -1) translate(-16.000000, -15.000000) translate(6.000000, 6.000000)">
                        <path d="M19.1106667,8.70537878 C19.1106667,8.07261687 18.6455238,7.55090259 18.0693333,7.55090259 L12.0937143,7.55090259 C12.9129524,5.50595021 12.8060952,2.92252164 12.8060952,2.92252164 C12.6259048,1.58995021 12.2697143,0.810521637 11.7459048,0.349569256 C10.771619,-0.522049792 10.2561905,0.510902589 10.2561905,0.510902589 C10.2561905,0.510902589 10.6207619,2.48461687 10.2939048,3.64747402 C9.96285714,4.81661687 7.63504762,8.24023592 7.63504762,8.24023592 C7.48419048,8.64252164 6.05942857,9.57280735 5.55028571,9.81375973 L5.55028571,16.0973788 C5.55028571,16.0973788 6.58114286,16.0722359 7.04209524,16.3006169 C8.85866667,17.1889978 16.3030476,16.7448074 16.3030476,16.7448074 C16.3030476,16.7448074 16.3030476,16.7448074 16.2988571,16.7385216 C16.8310476,16.6840454 17.2521905,16.2042359 17.2521905,15.6008074 C17.2521905,14.9575693 16.7891429,14.4484264 16.2150476,14.4484264 L16.755619,14.4484264 C17.3401905,14.4484264 17.7927619,13.9329978 17.7927619,13.2960454 C17.7927619,12.6611883 17.3401905,12.1520454 16.755619,12.1520454 L17.3066667,12.1520454 C17.8807619,12.1520454 18.3459048,11.6345216 18.3459048,11.0059502 C18.3459048,10.3648074 17.8807619,9.85566449 17.3066667,9.85566449 L18.0693333,9.85566449 C18.6455238,9.85566449 19.1106667,9.34023592 19.1106667,8.70537878" id="Fill-781"></path>
                        <path d="M2.58971429,14.831855 C2.16438095,14.831855 1.8207619,15.1733788 1.8207619,15.6049978 C1.8207619,16.0324264 2.16438095,16.3739502 2.58971429,16.3739502 C3.01504762,16.3739502 3.36285714,16.0324264 3.36285714,15.6049978 C3.36285714,15.1733788 3.01504762,14.831855 2.58971429,14.831855 Z M0,9.34861687 C0,8.77033116 0.467238095,8.30099783 1.04761905,8.30099783 L3.46552381,8.30099783 C4.04590476,8.30099783 4.51733333,8.77033116 4.51733333,9.34861687 L4.51733333,16.3236645 C4.51733333,16.9082359 4.04590476,17.3733788 3.46552381,17.3733788 L1.04761905,17.3733788 C0.467238095,17.3733788 0,16.9082359 0,16.3236645 L0,9.34861687 Z" id="Fill-782"></path>
                    </g>
                </g>
            </g>
        </g>
    </g>
</svg>